<?xml version="1.0" encoding="utf-8"?>
<svg version="1.1"
  xmlns="http://www.w3.org/2000/svg"
  xmlns:xlink="http://www.w3.org/1999/xlink" x="0px" y="0px" viewBox="0 0 32 32" style="enable-background:new 0 0 32 32;" xml:space="preserve">
  <style type="text/css">
	.st0{fill:#FFFFFF;}
  </style>
  <g transform="translate(0.000000,512.000000) scale(0.100000,-0.100000)">
    <path class="st0" d="M42.5,5077.7c-1.4-1.3-2.5-3.3-2.5-4.4c0-2.6,169-227.5,173.4-230.8c2.5-2,4.2-2.3,13.2-2.3
		c7.9,0,10.7,0.4,12.2,1.6c1.6,1.5,1.6,1.9-0.3,4.7c-10.7,15.1-172.8,229.5-175,231.3c-2.3,1.8-4.1,2.2-10.7,2.2
		C46.1,5079.9,44.6,5079.6,42.5,5077.7z"/>
    <path class="st0" d="M83.9,5078.3c-1.2-1.2-1.2-2-0.2-3.4c26.2-35.6,174.1-231.1,176.1-232.6c4.2-3.3,13.4-3.2,17.3,0.2
		c1.6,1.3,2.9,3.3,2.9,4.4c0,2.2-170.4,229.7-173.6,231.7C103.4,5080.6,85.9,5080.3,83.9,5078.3z"/>
    <path class="st0" d="M212.4,5077.7c-5-4.3-42.5-55.7-42.5-58.1c0-3.6,10.4-16.2,13.3-16.2c1.7,0,8.7,8.4,29.2,35.5
		c14.8,19.5,26.9,36.2,27,37c0,3.2-2.7,3.9-13.6,3.9C216.1,5079.9,214.7,5079.7,212.4,5077.7z"/>
    <path class="st0" d="M260.1,5078.7c-2.3-1.6-64.6-84.1-66.2-87.7c-1.5-3.2,0.2-7.1,4.5-11.2c2.4-2.2,3.8-2.6,7.2-2.4l4.3,0.3
		l35.1,46.9c19.2,25.8,35,47.7,35,48.7s-1.3,2.9-2.9,4.1c-2.2,2-3.9,2.5-9,2.5C264.7,5079.9,261.1,5079.3,260.1,5078.7z"/>
    <path class="st0" d="M112,4942.4c-3.2-1.4-72-92.5-72-95.3c0-1,0.9-2.9,2.2-4.1c1.7-1.9,3.5-2.4,9.5-2.6c4.6-0.3,8.3,0.1,10.1,0.9
		c3.7,1.9,66.3,85.4,66.3,88.5c0,2.7-7.3,12.9-9.2,12.9c-0.6,0-1.7,0.2-2.7,0.5C115.5,4943.5,113.5,4943.1,112,4942.4z"/>
    <path class="st0" d="M136.5,4914.4c-2.4-1.8-53.6-69.1-53.6-70.5c0-0.4,0.8-1.5,1.9-2.3c1.9-1.6,14.4-2.2,19.9-1
		c3.2,0.8,45.4,56.3,45.4,59.8c0,1.9-9.5,15.6-10.9,15.6C139,4916.1,137.7,4915.3,136.5,4914.4z"/>
  </g>
</svg>
