<?xml version="1.0" standalone="no"?>
<!DOCTYPE svg PUBLIC "-//W3C//DTD SVG 20010904//EN"
 "http://www.w3.org/TR/2001/REC-SVG-20010904/DTD/svg10.dtd">
<svg version="1.0" xmlns="http://www.w3.org/2000/svg"
 width="700.000000pt" height="700.000000pt" viewBox="0 0 700.000000 700.000000"
 preserveAspectRatio="xMidYMid meet">
<metadata>
Created by potrace 1.14, written by Peter Selinger 2001-2017
</metadata>
<g transform="translate(0.000000,700.000000) scale(0.100000,-0.100000)"
fill="#000000" stroke="none">
<path d="M1097 6124 c-1 -1 -28 -4 -60 -7 -68 -6 -117 -38 -147 -96 l-19 -39
46 -68 c25 -38 61 -89 79 -114 18 -25 46 -63 62 -85 44 -61 365 -499 375 -510
4 -5 103 -138 219 -295 116 -157 238 -322 272 -366 33 -45 70 -94 81 -110 35
-48 1323 -1762 1453 -1934 69 -91 182 -239 251 -330 69 -91 148 -195 176 -231
27 -36 61 -81 75 -99 71 -95 311 -408 444 -579 83 -106 165 -213 183 -236 51
-69 108 -120 146 -132 42 -13 378 -15 432 -3 38 9 85 45 85 66 0 6 -17 36 -37
65 -37 54 -953 1280 -963 1289 -3 3 -100 131 -216 285 -116 154 -246 327 -290
385 -43 58 -82 110 -86 115 -4 6 -18 24 -31 40 -13 17 -147 194 -299 395 -151
201 -398 528 -549 726 -151 199 -326 430 -389 514 -63 83 -123 161 -132 173
-9 12 -94 123 -188 247 -93 124 -176 232 -183 240 -6 9 -32 42 -56 75 -25 33
-47 62 -50 65 -3 3 -40 50 -81 105 -105 140 -278 362 -307 396 -31 34 -99 52
-211 54 -45 0 -84 0 -85 -1z"/>
<path d="M2017 6124 c-1 -1 -33 -5 -72 -9 -75 -7 -121 -28 -128 -57 -7 -23
287 -419 1553 -2093 75 -99 254 -335 397 -525 143 -190 322 -427 397 -525 75
-99 228 -302 340 -450 113 -149 213 -280 223 -292 10 -12 25 -31 33 -43 8 -12
93 -124 188 -248 95 -125 180 -238 190 -251 9 -13 22 -28 27 -35 6 -6 24 -29
40 -51 17 -22 75 -99 130 -171 55 -72 111 -145 125 -164 177 -235 222 -285
273 -310 41 -19 68 -24 132 -24 126 -1 205 36 245 114 l18 35 -56 80 c-53 76
-278 385 -422 580 -36 50 -125 169 -196 265 -71 96 -134 182 -141 190 -7 8
-107 143 -223 300 -116 157 -219 296 -230 310 -10 14 -230 306 -487 650 -606
809 -1286 1714 -1293 1720 -3 3 -39 50 -80 105 -41 55 -80 107 -87 115 -6 8
-118 155 -249 325 -305 400 -327 427 -357 438 -34 13 -279 30 -290 21z"/>
<path d="M5855 6124 c-6 -1 -41 -6 -79 -9 -82 -8 -88 -13 -223 -185 -87 -112
-389 -506 -447 -585 -17 -22 -33 -42 -36 -45 -3 -3 -23 -30 -45 -60 -22 -30
-42 -57 -45 -60 -9 -8 -463 -617 -597 -801 -134 -183 -153 -216 -153 -255 0
-78 120 -226 195 -240 60 -11 168 2 182 23 7 10 21 29 32 43 14 18 560 748
741 990 112 150 301 408 482 659 42 58 86 117 96 131 11 14 53 75 94 135 65
94 74 114 67 134 -14 35 -89 100 -129 111 -37 9 -119 18 -135 14z"/>
<path d="M4706 6110 c-40 -12 -82 -55 -191 -190 -89 -112 -375 -494 -445 -595
-19 -27 -38 -52 -41 -55 -13 -12 -240 -342 -277 -404 l-41 -68 24 -47 c64
-125 224 -301 274 -301 28 0 204 206 427 500 43 57 132 174 197 260 104 136
472 632 520 700 78 112 87 129 78 154 -9 22 -22 30 -71 44 -30 9 -426 10 -454
2z"/>
<path d="M2465 3121 c-27 -12 -70 -60 -198 -221 -60 -74 -114 -142 -120 -150
-7 -8 -26 -33 -42 -55 -17 -22 -34 -45 -40 -51 -5 -6 -21 -26 -35 -44 -14 -18
-65 -85 -114 -149 -136 -176 -587 -777 -711 -945 -141 -193 -134 -183 -242
-341 -87 -127 -92 -136 -81 -162 19 -46 70 -93 113 -104 47 -13 287 -17 329
-6 34 9 61 37 165 167 42 52 78 97 81 100 44 40 911 1198 1070 1430 25 36 47
67 50 70 22 21 110 170 110 186 0 29 -83 165 -137 224 -47 51 -49 52 -113 56
-36 2 -74 0 -85 -5z"/>
<path d="M3013 2521 c-35 -22 -149 -162 -444 -546 -180 -233 -578 -764 -688
-915 -30 -41 -58 -80 -63 -86 -11 -14 27 -63 58 -74 51 -20 225 -29 358 -20
51 4 82 23 126 75 14 16 36 42 50 56 14 15 62 74 107 131 45 57 91 115 102
128 11 14 24 30 28 35 348 446 633 847 633 889 0 36 -115 216 -191 299 l-44
48 -32 -20z"/>
</g>
</svg>
