<svg version="1.1" id="图层_1"
  xmlns="http://www.w3.org/2000/svg" x="0px" y="0px" viewBox="0 0 128 128">
  <style type="text/css">
	.st0{fill:#0080FF;}
  </style>
  <g>
    <path class="st0" d="M63.8,120.2V98.3c23.3,0,41.2-22.8,32.2-47c-3.3-8.9-10.3-16.2-19.6-19.5C52.5,23.2,29.6,41,29.6,63.9H7.6
		c0-36.4,35.6-65.2,74.4-53.3C99,15.9,112.3,29.1,117.6,46C129.6,84.7,100.7,120.2,63.8,120.2z"/>
    <path class="st0" d="M64.1,98.3H42.2V76.8h21.9V98.3z M42.2,115.2H25.6V98.3h16.6C42.2,98.3,42.2,115.2,42.2,115.2z M25.6,98.3h-14
		V84.4h14C25.6,84.4,25.6,98.3,25.6,98.3z"/>
  </g>
</svg>
