<svg version="1.1" id="图层_1"
  xmlns="http://www.w3.org/2000/svg" x="0px" y="0px" viewBox="0 0 80 80">
  <style type="text/css">
	.st0{fill:#FF6C37;}
	.st1{fill:#FFFFFF;}
  </style>
  <g>
    <path class="st0" d="M70.2,16.7C57.3,0,33.4-3.1,16.7,9.8S-3.1,46.6,9.8,63.3s36.9,19.8,53.6,6.9c0,0,0,0,0,0
		C80,57.3,83.1,33.3,70.2,16.7L70.2,16.7z"/>
    <path class="st1" d="M52.9,26.1L36.8,42.4l-4.5-4.7C48.1,21.9,49.7,23.3,52.9,26.1L52.9,26.1z"/>
    <path class="st0" d="M36.8,42.8c-0.1,0-0.3-0.1-0.4-0.2l-4.6-4.6c-0.2-0.2-0.2-0.6,0-0.8c15.6-15.6,17.8-14.9,21.4-11.5
		c0.1,0.1,0.2,0.3,0.2,0.4c0,0.2,0,0.3-0.2,0.4L37.2,42.7C37.1,42.8,36.9,42.8,36.8,42.8L36.8,42.8z M33,37.7l3.8,3.8l15.3-15.3
		c-1.1-1.4-3-1.7-4.5-0.8C44.8,26.7,40.3,30.4,33,37.7z"/>
    <path class="st1" d="M41.4,46.9L37,42.4l16.1-15.9C57.4,30.7,51,37.8,41.4,46.9L41.4,46.9z"/>
    <path class="st0" d="M41.4,47.4c-0.1,0-0.3-0.1-0.4-0.2l-4.5-4.4c-0.1-0.2-0.1-0.3,0-0.5c0-0.1,0-0.3,0-0.4l16.1-16.1
		c0.2-0.2,0.6-0.2,0.8,0c1.1,1,1.6,2.4,1.6,3.8c0,4.3-4.9,9.7-13.2,17.6C41.7,47.4,41.5,47.4,41.4,47.4L41.4,47.4z M37.8,42.4
		l3.6,3.6c6.4-6,12.4-12.2,12.5-16.4c0-0.9-0.3-1.8-0.8-2.4L37.8,42.4z"/>
    <path class="st1" d="M32.4,37.8l3.2,3.2c0.1,0.1,0.1,0.2,0,0.3c0,0,0,0,0,0l-6.7,1.4c-0.3,0.1-0.7-0.1-0.8-0.5c0-0.2,0-0.4,0.2-0.6
		l3.9-3.9C32.2,37.7,32.3,37.7,32.4,37.8z"/>
    <path class="st0" d="M28.7,43.3c-0.4,0-0.8-0.2-1-0.6c-0.3-0.5-0.2-1.1,0.2-1.4l3.9-3.9c0.3-0.3,0.7-0.3,1,0l3.2,3.2
		c0.2,0.2,0.3,0.4,0.2,0.7c-0.1,0.3-0.3,0.4-0.5,0.5l-6.7,1.4L28.7,43.3z M32.2,38.5l-3.6,3.6l6-1.3L32.2,38.5z"/>
    <path class="st1" d="M61.4,17.2c-2.3-2.2-5.9-2.3-8.3-0.2s-2.8,5.7-0.9,8.3c1.9,2.6,5.4,3.3,8.2,1.7L56,22.6L61.4,17.2z"/>
    <path class="st0" d="M57.1,28.4c-2.7,0-5.1-1.7-6.2-4.2c-1-2.5-0.5-5.4,1.4-7.3c2.6-2.6,6.9-2.6,9.5,0c0.1,0.1,0.2,0.3,0.2,0.4
		c0,0.2-0.1,0.3-0.2,0.4l-5.2,4.9l3.9,3.9c0.1,0.1,0.2,0.3,0.2,0.5c0,0.2-0.1,0.3-0.3,0.4C59.6,28,58.4,28.4,57.1,28.4L57.1,28.4z M57.1,16.1c-2.3,0-4.3,1.4-5.1,3.5c-0.9,2.1-0.4,4.5,1.2,6.1c1.6,1.6,4.1,2.1,6.2,1.2L55.6,23c-0.2-0.2-0.3-0.5-0.1-0.7
		c0,0,0.1-0.1,0.1-0.1l5-5C59.6,16.5,58.4,16.1,57.1,16.1L57.1,16.1z"/>
    <path class="st1" d="M61.5,17.3l-5.4,5.4l4.3,4.3c0.4-0.3,0.8-0.5,1.2-0.9C64,23.7,63.9,19.7,61.5,17.3z"/>
    <path class="st0" d="M60.3,27.5c-0.1,0-0.3-0.1-0.4-0.2L55.6,23c-0.2-0.2-0.3-0.5-0.1-0.7c0,0,0.1-0.1,0.1-0.1l5.4-5.3
		c0.2-0.3,0.5-0.3,0.8-0.2c0.1,0,0.1,0.1,0.2,0.2c2.6,2.6,2.7,6.8,0.1,9.4c0,0-0.1,0.1-0.1,0.1c-0.4,0.4-0.8,0.7-1.3,1
		C60.6,27.5,60.4,27.6,60.3,27.5L60.3,27.5z M56.8,22.6l3.6,3.6c0.2-0.2,0.5-0.4,0.7-0.6c1.1-1.1,1.7-2.5,1.7-4
		c0-1.3-0.5-2.6-1.4-3.6L56.8,22.6z"/>
    <path class="st1" d="M53.5,26.8c-0.9-0.8-2.3-0.8-3.2,0L36,41.2l2.4,2.4l15.2-13.4c0.9-0.9,1-2.4,0.1-3.3
		C53.6,26.9,53.6,26.8,53.5,26.8L53.5,26.8z"/>
    <path class="st0" d="M38.2,44.2c-0.1,0-0.3-0.1-0.4-0.2l-2.4-2.4c-0.2-0.2-0.2-0.6,0-0.8l14.4-14.3c1.1-1.1,3-1.1,4.1,0
		c0.6,0.6,0.9,1.4,0.9,2.2c0,0.8-0.4,1.6-1,2.1L38.6,44.1C38.5,44.2,38.3,44.2,38.2,44.2L38.2,44.2z M36.5,41.2l1.6,1.6l15-13
		c0.4-0.3,0.6-0.8,0.6-1.3c0-0.5-0.2-1-0.5-1.3c-0.7-0.7-1.8-0.7-2.5,0L36.5,41.2z"/>
    <path class="st1" d="M24.8,57.6c-0.1,0.1-0.1,0.3,0,0.4l0.6,2.8c0.1,0.3-0.1,0.7-0.4,0.8c-0.3,0.2-0.7,0.1-0.9-0.1l-4.4-4.2
		l13.6-13.7h4.7l3.2,3.2C36.3,51.1,30.7,54.7,24.8,57.6z"/>
    <path class="st0" d="M24.5,62.3c-0.4,0-0.7-0.2-1-0.4l-4.2-4.2c-0.2-0.2-0.3-0.5-0.1-0.7c0,0,0.1-0.1,0.1-0.1l13.7-13.7
		c0.1-0.1,0.2-0.1,0.3-0.2h4.7c0.1,0,0.3,0,0.4,0l3.2,3.2c0.1,0.1,0.2,0.3,0.2,0.4c0,0.2-0.1,0.3-0.2,0.4l-0.3,0.2
		c-5,4.2-10.5,7.7-16.3,10.5l0.6,2.6c0.2,0.7-0.3,1.5-1,1.6c-0.1,0-0.2,0-0.3,0L24.5,62.3z M20.6,57.3l3.8,3.8
		c0.1,0.1,0.2,0.1,0.3,0c0-0.1,0-0.2,0-0.2L24,58.1c-0.1-0.4,0.1-0.8,0.5-1c5.7-2.8,11-6.2,15.9-10.2l-2.6-2.6h-4.3L20.6,57.3z"/>
    <path class="st1" d="M16.5,60.5l3.2-3.2l4.9,4.9l-7.8-0.5c-0.4,0-0.6-0.3-0.6-0.7C16.2,60.8,16.3,60.6,16.5,60.5L16.5,60.5z"/>
    <path class="st0" d="M24.7,62.7l-7.8-0.5c-0.5,0-0.9-0.4-1-0.8c-0.2-0.4-0.1-0.9,0.3-1.3l3.2-3.2c0.2-0.2,0.6-0.2,0.8,0l4.9,4.9
		c0.1,0.2,0.1,0.4,0,0.6C24.9,62.6,24.8,62.7,24.7,62.7L24.7,62.7z M16.9,61l6.4,0.4l-3.5-3.3L16.9,61z"/>
    <path class="st1" d="M38.5,44l-6.4,1l3.7-3.7L38.5,44z"/>
    <path class="st0" d="M32.1,45.6c-0.2,0-0.4-0.1-0.5-0.3c-0.1-0.2-0.1-0.4,0-0.6l3.7-3.7c0.2-0.2,0.6-0.2,0.8,0l2.7,2.7
		c0.1,0.2,0.1,0.4,0,0.6c-0.1,0.2-0.2,0.4-0.4,0.4L32.1,45.6L32.1,45.6z M35.8,42.1l-2.1,2.1l3.6-0.5L35.8,42.1z"/>
    <path class="st1" d="M38.5,44L34,44.5c-0.3,0.1-0.6-0.1-0.7-0.4c0-0.2,0-0.4,0.1-0.5l2.3-2.3L38.5,44z"/>
    <path class="st0" d="M33.9,45.1c-0.4,0-0.8-0.2-1-0.6c-0.2-0.4-0.2-1,0.2-1.4l2.3-2.3c0.2-0.2,0.6-0.2,0.8,0l2.7,2.7
		c0.2,0.2,0.2,0.6,0,0.8c-0.1,0.1-0.2,0.2-0.4,0.2l-4.5,0.6L33.9,45.1z M33.9,44l3.4-0.4l-1.5-1.5L33.9,44L33.9,44z M61.6,21
		c-0.1-0.2-0.4-0.3-0.6-0.2c-0.1,0.1-0.2,0.1-0.2,0.3c0,0.1,0,0.2,0,0.3c0.2,0.5,0.2,1-0.2,1.4c-0.1,0.1-0.1,0.2-0.1,0.3
		c0,0.1,0,0.2,0.1,0.3c0.1,0,0.2,0,0.3,0c0.2,0,0.3,0,0.4-0.1C61.8,22.6,61.9,21.7,61.6,21L61.6,21z"/>
  </g>
</svg>
