<svg xmlns="http://www.w3.org/2000/svg" x="0px" y="0px" viewBox="0 0 128 128">
  <style type="text/css">
	.st0{fill:url(#SVGID_1_);}
	.st1{fill:url(#SVGID_00000158024272426419071800000015681372220752601000_);}
  </style>
  <g>

    <linearGradient id="SVGID_1_" gradientUnits="userSpaceOnUse" x1="755.1693" y1="195.101" x2="865.8125" y2="290.2949" gradientTransform="matrix(0.563 0 0 0.568 -420.33 -100.563)">
      <stop offset="0" style="stop-color:#5A9FD4"/>
      <stop offset="1" style="stop-color:#306998"/>
    </linearGradient>
    <path class="st0" d="M63.3,7c-4.7,0-9.1,0.4-13,1.1c-11.5,2-13.6,6.3-13.6,14.1v10.4h27.2v3.5H26.5c-7.9,0-14.8,4.8-17,13.8
		C7,60.2,6.9,66.7,9.5,77.5c1.9,8.1,6.6,13.8,14.5,13.8h9.4V78.9c0-9,7.8-16.9,17-16.9h27.2c7.6,0,13.6-6.2,13.6-13.8V22.2
		c0-7.4-6.2-12.9-13.6-14.1C72.8,7.3,68,7,63.3,7z M48.6,15.3c2.8,0,5.1,2.3,5.1,5.2c0,2.9-2.3,5.2-5.1,5.2c-2.8,0-5.1-2.3-5.1-5.2
		C43.5,17.6,45.8,15.3,48.6,15.3z"/>

    <linearGradient id="SVGID_00000085964179828740452170000015259144160700256665_" gradientUnits="userSpaceOnUse" x1="908.5264" y1="347.9157" x2="869.0172" y2="292.0184" gradientTransform="matrix(0.563 0 0 0.568 -420.33 -100.563)">
      <stop offset="0" style="stop-color:#FFD43B"/>
      <stop offset="1" style="stop-color:#FFE873"/>
    </linearGradient>
    <path style="fill:url(#SVGID_00000085964179828740452170000015259144160700256665_);" d="M94.5,36.1v12.1c0,9.4-7.9,17.3-17,17.3
		H50.3c-7.4,0-13.6,6.4-13.6,13.8v25.9c0,7.4,6.4,11.7,13.6,13.8c8.6,2.5,16.9,3,27.2,0c6.8-2,13.6-6,13.6-13.8V94.8H63.9v-3.5h40.8
		c7.9,0,10.9-5.5,13.6-13.8c2.8-8.5,2.7-16.7,0-27.7c-2-7.9-5.7-13.8-13.6-13.8L94.5,36.1L94.5,36.1z M79.2,101.7
		c2.8,0,5.1,2.3,5.1,5.2c0,2.9-2.3,5.2-5.1,5.2c-2.8,0-5.1-2.3-5.1-5.2C74.1,104,76.4,101.7,79.2,101.7z"/>
  </g>
</svg>
